<?xml version="1.0" encoding="UTF-8"?>
<svg width="1128" height="191" viewBox="0 0 1128 191" xmlns="http://www.w3.org/2000/svg">
  <defs>
    <pattern id="dp" width="28" height="28" patternUnits="userSpaceOnUse">
      <circle cx="14" cy="14" r="1.3" fill="white" fill-opacity="0.11"/>
    </pattern>
    <radialGradient id="gb" cx="0.12" cy="0.5" r="0.55" gradientUnits="objectBoundingBox">
      <stop offset="0%" stop-color="#1e24b4" stop-opacity="0.55"/>
      <stop offset="100%" stop-color="#070838" stop-opacity="0"/>
    </radialGradient>
    <radialGradient id="gi" cx="0.58" cy="0.2" r="0.5" gradientUnits="objectBoundingBox">
      <stop offset="0%" stop-color="#3e46d2" stop-opacity="0.22"/>
      <stop offset="100%" stop-color="#070838" stop-opacity="0"/>
    </radialGradient>
    <radialGradient id="gr" cx="0.88" cy="0.55" r="0.4" gradientUnits="objectBoundingBox">
      <stop offset="0%" stop-color="#E8001D" stop-opacity="0.09"/>
      <stop offset="100%" stop-color="#070838" stop-opacity="0"/>
    </radialGradient>
  </defs>

  <!-- Background -->
  <rect width="1128" height="191" fill="#070838"/>
  <rect width="1128" height="191" fill="url(#dp)"/>
  <rect width="1128" height="191" fill="url(#gb)"/>
  <rect width="1128" height="191" fill="url(#gi)"/>
  <rect width="1128" height="191" fill="url(#gr)"/>

  <!-- Left: text content -->
  <line x1="60" y1="57" x2="84" y2="57" stroke="#E8001D" stroke-width="2.5" stroke-linecap="round"/>
  <text x="94" y="62" font-family="Inter,system-ui,-apple-system,sans-serif" font-size="11" font-weight="700" fill="#E8001D" letter-spacing="2.5">UK SOFTWARE CONSULTANCY</text>
  <text x="60" y="107" font-family="Inter,system-ui,-apple-system,sans-serif" font-size="46" font-weight="800" fill="white" letter-spacing="-1.5">Smartick Solutions</text>
  <text x="60" y="138" font-family="Inter,system-ui,-apple-system,sans-serif" font-size="19" font-weight="400" fill="rgba(255,255,255,0.65)">Smart Technology. Real Results.</text>
  <text x="62" y="163" font-family="Inter,system-ui,-apple-system,sans-serif" font-size="12" font-weight="400" fill="rgba(255,255,255,0.35)">smarticksolutions.co.uk</text>

  <!-- Right: circuit decoration -->
  <g opacity="0.17" stroke="white" fill="none">
    <line x1="700" y1="0" x2="700" y2="191" stroke-width="0.8"/>
    <line x1="830" y1="0" x2="830" y2="191" stroke-width="0.8"/>
    <line x1="960" y1="0" x2="960" y2="191" stroke-width="0.8"/>
    <line x1="1090" y1="0" x2="1090" y2="191" stroke-width="0.8"/>
    <line x1="660" y1="48" x2="1128" y2="48" stroke-width="0.8"/>
    <line x1="660" y1="96" x2="1128" y2="96" stroke-width="0.8"/>
    <line x1="660" y1="144" x2="1128" y2="144" stroke-width="0.8"/>
    <circle cx="700" cy="48" r="3.5" fill="white"/>
    <circle cx="830" cy="48" r="3.5" fill="white"/>
    <circle cx="960" cy="48" r="3.5" fill="white"/>
    <circle cx="1090" cy="48" r="3.5" fill="white"/>
    <circle cx="700" cy="96" r="3.5" fill="white"/>
    <circle cx="830" cy="96" r="6" fill="white"/>
    <circle cx="960" cy="96" r="3.5" fill="white"/>
    <circle cx="1090" cy="96" r="6" fill="white"/>
    <circle cx="700" cy="144" r="3.5" fill="white"/>
    <circle cx="830" cy="144" r="3.5" fill="white"/>
    <circle cx="960" cy="144" r="6" fill="white"/>
    <circle cx="1090" cy="144" r="3.5" fill="white"/>
    <path d="M700 48 L760 48 L760 72 L830 72" stroke-width="2" fill="none"/>
    <path d="M830 120 L900 120 L900 144 L960 144" stroke-width="2" fill="none"/>
    <path d="M700 144 L700 120 L760 120 L760 96 L830 96" stroke-width="1.5" fill="none"/>
    <path d="M960 48 L1025 48 L1025 96 L1090 96" stroke-width="1.5" fill="none"/>
    <rect x="776" y="60" width="108" height="72" rx="5" stroke-width="1.5"/>
    <rect x="788" y="72" width="84" height="48" rx="3" fill="white" fill-opacity="0.04"/>
    <line x1="776" y1="74" x2="756" y2="74" stroke-width="1.5"/>
    <line x1="776" y1="90" x2="756" y2="90" stroke-width="1.5"/>
    <line x1="776" y1="106" x2="756" y2="106" stroke-width="1.5"/>
    <line x1="884" y1="74" x2="904" y2="74" stroke-width="1.5"/>
    <line x1="884" y1="90" x2="904" y2="90" stroke-width="1.5"/>
    <line x1="884" y1="106" x2="904" y2="106" stroke-width="1.5"/>
    <circle cx="1100" cy="22" r="36" stroke-width="0.8"/>
    <circle cx="1100" cy="22" r="22" stroke-width="0.8"/>
    <circle cx="1100" cy="22" r="9" fill="white" fill-opacity="0.18"/>
    <line x1="1064" y1="22" x2="1079" y2="22" stroke-width="0.8"/>
    <circle cx="1064" cy="22" r="2.5" fill="white"/>
    <polygon points="676,155 688,167 676,179 664,167" stroke-width="1.2"/>
    <circle cx="676" cy="167" r="2.5" fill="white" fill-opacity="0.4"/>
  </g>
</svg>
